HIERARCHY
ROOT Hips
{
	OFFSET 0.000000 0.000000 0.000000
	CHANNELS 6 Xposition Yposition Zposition Zrotation Yrotation Xrotation 
	JOINT LHipJoint
	{
		OFFSET 0.000000 0.000000 0.000000
		CHANNELS 3 Zrotation Yrotation Xrotation
		JOINT LeftUpLeg
		{
			OFFSET 1.363060 -1.794630 0.839290
			CHANNELS 3 Zrotation Yrotation Xrotation
			JOINT LeftLeg
			{
				OFFSET 2.448110 -6.726130 0.000000
				CHANNELS 3 Zrotation Yrotation Xrotation
				JOINT LeftFoot
				{
					OFFSET 2.562200 -7.039590 0.000000
					CHANNELS 3 Zrotation Yrotation Xrotation
					JOINT LeftToeBase
					{
						OFFSET 0.157640 -0.433110 2.322550
						CHANNELS 3 Zrotation Yrotation Xrotation
						End Site
						{
							OFFSET 0.000000 0.000000 0.000000
						}
					}
				}
			}
		}
	}
	JOINT RHipJoint
	{
		OFFSET 0.000000 0.000000 0.000000
		CHANNELS 3 Zrotation Yrotation Xrotation
		JOINT RightUpLeg
		{
			OFFSET -1.305520 -1.794630 0.839290
			CHANNELS 3 Zrotation Yrotation Xrotation
			JOINT RightLeg
			{
				OFFSET -2.542530 -6.985550 0.000000
				CHANNELS 3 Zrotation Yrotation Xrotation
				JOINT RightFoot
				{
					OFFSET -2.568260 -7.056230 0.000000
					CHANNELS 3 Zrotation Yrotation Xrotation
					JOINT RightToeBase
					{
						OFFSET -0.164730 -0.452590 2.363150
						CHANNELS 3 Zrotation Yrotation Xrotation
						End Site
						{
							OFFSET 0.000000 0.000000 0.000000
						}
					}
				}
			}
		}
	}
}
MOTION
Frames: 16
Frame Time: 0.008333
-1.858998 17.536704 -1.621394 118.179742 -63.668689 -95.085401 -5.247840 -2.393375 3.321099 -6.388779 -16.283140 -91.322428 -5.727270 -2.780693 -9.014379 -1.672946 -7.773111 15.054150 -2.269800 0.000000 -57.248700 9.991768 5.569758 -4.051871 -13.883921 -1.699758 -28.060391 -0.246936 -0.309995 9.658459 -0.463256 -1.063204 1.147528 -0.510600 -0.000000 -59.310300
-1.859515 17.536195 -1.621154 118.345651 -63.442811 -94.987162 -5.245727 -2.323748 3.269812 -7.390207 -16.397998 -91.165692 -5.901159 -2.840874 -9.292525 -1.742169 -8.208196 15.040493 -2.440800 -0.000001 -57.560500 10.005590 5.577744 -3.941956 -14.119995 -1.678112 -28.405383 -0.269453 -0.287437 9.522071 -0.454135 -1.024043 1.244443 -0.509301 0.000000 -59.316500
-1.860358 17.535467 -1.619724 118.511348 -63.263510 -94.918176 -5.268566 -2.251443 3.220252 -8.329605 -16.512494 -90.962029 -6.041805 -2.857585 -9.330857 -1.774179 -8.381052 15.060671 -2.509901 -0.000000 -57.780600 10.004367 5.573109 -3.840415 -14.296356 -1.635533 -28.705863 -0.285844 -0.263254 9.384629 -0.448345 -1.007529 1.329924 -0.512300 0.000000 -59.290800
-1.861684 17.534516 -1.617269 118.672333 -63.129205 -94.874253 -5.313242 -2.177842 3.173254 -9.202411 -16.623714 -90.697984 -6.148153 -2.835775 -9.170618 -1.767415 -8.273419 15.131253 -2.471001 -0.000000 -57.921600 9.991391 5.558460 -3.747986 -14.418256 -1.581887 -28.968650 -0.295863 -0.239017 9.260312 -0.444373 -1.002958 1.399274 -0.517399 -0.000000 -59.245600
-1.863341 17.533397 -1.613857 118.825508 -63.040506 -94.861572 -5.378826 -2.102026 3.121271 -10.057838 -16.726924 -90.367625 -6.229284 -2.774759 -8.809776 -1.729747 -7.947788 15.239175 -2.346900 -0.000000 -57.962400 9.965987 5.533337 -3.665828 -14.483185 -1.517707 -29.186072 -0.299033 -0.215015 9.153126 -0.441891 -1.008293 1.450014 -0.523900 0.000000 -59.172801
-1.865373 17.532044 -1.609720 118.973520 -62.993681 -94.884450 -5.461709 -2.026176 3.062309 -10.896808 -16.812190 -89.957255 -6.284956 -2.680556 -8.291105 -1.663622 -7.430071 15.393651 -2.147500 0.000001 -57.895900 9.930264 5.498997 -3.593536 -14.493497 -1.445673 -29.361973 -0.295439 -0.191991 9.070992 -0.440002 -1.017330 1.479410 -0.530500 0.000000 -59.077400
-1.867887 17.530478 -1.605046 119.125553 -62.984679 -94.953726 -5.557760 -1.951512 2.991595 -11.738534 -16.866972 -89.452121 -6.318986 -2.558999 -7.652463 -1.575684 -6.778005 15.597391 -1.894499 -0.000000 -57.723200 9.886815 5.456571 -3.529719 -14.454568 -1.367477 -29.498606 -0.285327 -0.170616 9.020541 -0.437681 -1.023138 1.484755 -0.535700 0.000000 -58.963200
-1.871081 17.528796 -1.599806 119.293917 -63.013697 -95.079525 -5.665041 -1.881911 2.908256 -12.566169 -16.876528 -88.845670 -6.329676 -2.417205 -6.937872 -1.471222 -6.038923 15.849591 -1.605800 -0.000000 -57.428200 9.834731 5.405117 -3.473505 -14.362618 -1.277188 -29.597326 -0.268665 -0.150387 8.998551 -0.435191 -1.028075 1.469423 -0.540100 -0.000001 -58.831101
-1.875047 17.527055 -1.594016 119.491758 -63.078626 -95.272714 -5.781623 -1.820853 2.810671 -13.367516 -16.825930 -88.131626 -6.317529 -2.262378 -6.188787 -1.357751 -5.272464 16.143820 -1.304400 -0.000000 -57.024700 9.773326 5.343873 -3.423657 -14.215672 -1.168350 -29.658417 -0.245687 -0.130587 8.999881 -0.432900 -1.035066 1.436058 -0.544400 -0.000000 -58.679800
-1.879820 17.525140 -1.588065 119.730257 -63.170940 -95.541439 -5.902266 -1.770248 2.698333 -14.133767 -16.703326 -87.299946 -6.285586 -2.103805 -5.455135 -1.242970 -4.531812 16.476084 -1.012200 0.000000 -56.558000 9.707131 5.275059 -3.376925 -14.024960 -1.042480 -29.690851 -0.217559 -0.111779 9.028871 -0.429813 -1.037107 1.383061 -0.547000 0.000001 -58.516600
-1.885445 17.523013 -1.582056 120.018804 -63.285652 -95.890027 -6.024469 -1.732986 2.574005 -14.834834 -16.502243 -86.349828 -6.233923 -1.949852 -4.779340 -1.132512 -3.853566 16.837064 -0.744699 0.000000 -56.080200 9.637488 5.199447 -3.331279 -13.794566 -0.897173 -29.700830 -0.185033 -0.093628 9.082019 -0.425906 -1.034141 1.312733 -0.548200 -0.000000 -58.347700
-1.892364 17.521091 -1.575292 120.374313 -63.433991 -96.326450 -6.153267 -1.712736 2.440821 -15.432722 -16.220424 -85.298868 -6.161112 -1.802606 -4.165337 -1.032918 -3.284466 17.195533 -0.522700 0.000000 -55.601100 9.556314 5.112359 -3.287653 -13.507761 -0.716510 -29.679286 -0.147142 -0.073305 9.134211 -0.423827 -1.045809 1.238653 -0.552600 -0.000001 -58.159400
-1.900320 17.518898 -1.568773 120.792617 -63.592698 -96.842249 -6.280036 -1.708717 2.304731 -15.903384 -15.867250 -84.135245 -6.069036 -1.672848 -3.667717 -0.943911 -2.812868 17.558635 -0.342899 -0.000000 -55.231200 9.475243 5.021093 -3.241566 -13.193913 -0.516024 -29.647597 -0.106690 -0.053213 9.203135 -0.420809 -1.051697 1.152745 -0.555500 -0.000000 -57.975700
-1.909727 17.516998 -1.561380 121.287096 -63.782131 -97.444631 -6.414240 -1.721988 2.167312 -16.228753 -15.449048 -82.891753 -5.958474 -1.554079 -3.239972 -0.871379 -2.484628 17.877976 -0.226601 0.000000 -54.938500 9.381965 4.918593 -3.195436 -12.827174 -0.275545 -29.587587 -0.061720 -0.029544 9.255356 -0.420668 -1.079889 1.071440 -0.563400 0.000000 -57.781300
-1.920298 17.514821 -1.554273 121.845192 -63.973602 -98.117078 -6.545702 -1.750463 2.037273 -16.378105 -14.991156 -81.549867 -5.827375 -1.456685 -2.936674 -0.806629 -2.229670 18.176994 -0.143700 -0.000001 -54.817999 9.291252 4.814976 -3.146095 -12.444775 -0.019957 -29.524011 -0.015388 -0.006049 9.317913 -0.419418 -1.100980 0.982227 -0.569700 -0.000001 -57.596900
-1.932463 17.512964 -1.546246 122.478520 -64.191747 -98.868947 -6.686796 -1.791819 1.912395 -16.367194 -14.499636 -80.152579 -5.679671 -1.365984 -2.665546 -0.755656 -2.098220 18.400121 -0.117400 0.000000 -54.772200 9.188299 4.700981 -3.095929 -12.014368 0.276375 -29.430537 0.034552 0.021809 9.352318 -0.421961 -1.150772 0.904122 -0.582400 0.000001 -57.406900
